<?xml version="1.0" encoding="UTF-8" standalone="no"?>
<svg width="64" height="64" viewBox="0 0 64 64" fill="none" xmlns="http://www.w3.org/2000/svg">
  <!-- Shield background -->
  <path d="M32 5C32 5 12 11 12 11C12 11 12 28 12 40C12 52 32 59 32 59C32 59 52 52 52 40C52 28 52 11 52 11C52 11 32 5 32 5Z" fill="#3B82F6" stroke="#1E40AF" stroke-width="2"/>
  
  <!-- Inner shield gradient -->
  <path d="M32 9C32 9 16 14 16 14C16 14 16 28 16 38C16 48 32 54 32 54C32 54 48 48 48 38C48 28 48 14 48 14C48 14 32 9 32 9Z" fill="url(#shield_gradient)"/>
  
  <!-- Eye shape -->
  <ellipse cx="32" cy="30" rx="12" ry="8" fill="white" stroke="#1E40AF" stroke-width="1"/>
  
  <!-- Iris -->
  <circle cx="32" cy="30" r="5" fill="#1E40AF"/>
  
  <!-- Pupil -->
  <circle cx="32" cy="30" r="2.5" fill="black"/>
  
  <!-- Highlight -->
  <circle cx="30" cy="28" r="1" fill="white"/>
  
  <!-- Privacy blur effect - horizontal lines -->
  <g opacity="0.7">
    <rect x="20" y="28" width="24" height="1" rx="0.5" fill="white"/>
    <rect x="20" y="30" width="24" height="1" rx="0.5" fill="white"/>
    <rect x="20" y="32" width="24" height="1" rx="0.5" fill="white"/>
  </g>
  
  <!-- Gradient definition -->
  <defs>
    <linearGradient id="shield_gradient" x1="32" y1="9" x2="32" y2="54" gradientUnits="userSpaceOnUse">
      <stop offset="0" stop-color="#60A5FA"/>
      <stop offset="1" stop-color="#2563EB"/>
    </linearGradient>
  </defs>
</svg>
